<svg width="24" height="24" viewBox="0 0 24 24" fill="none" xmlns="http://www.w3.org/2000/svg">
<path d="M16.0229 9.34794H21.0149L17.8339 6.16494C16.8098 5.14081 15.5341 4.40433 14.1351 4.02955C12.7361 3.65476 11.2631 3.65487 9.86416 4.02986C8.46522 4.40486 7.18965 5.14153 6.16569 6.16581C5.14172 7.19009 4.40545 8.46588 4.03089 9.86494M2.98489 19.6439V14.6519M2.98489 14.6519H7.97689M2.98489 14.6519L6.16489 17.8349C7.189 18.8591 8.46468 19.5955 9.86368 19.9703C11.2627 20.3451 12.7357 20.345 14.1346 19.97C15.5336 19.595 16.8091 18.8584 17.8331 17.8341C18.8571 16.8098 19.5933 15.534 19.9679 14.1349M21.0149 4.35594V9.34594" stroke="white" stroke-width="1.5" stroke-linecap="round" stroke-linejoin="round"/>
</svg>
